PathFileType	4	(X/Y/Z)	D:\TRACE\v60_Jaco2_6-2-23\BothDRS_Motion2_8-v60.trc
DataRate	CameraRate	NumFrames	NumMarkers	Units	OrigDataRate	OrigDataStartFrame	OrigNumFrames
100.00	100.00	      28	9	mm	100.00	6563	      7500
Frame#	Time	front left toe			Front right toe			aft left toe			aft right toe			Arm			FL body			FR body			AL Body			AR Body			
		X1	Y1	Z1	X2	Y2	Z2	X3	Y3	Z3	X4	Y4	Z4	X5	Y5	Z5	X6	Y6	Z6	X7	Y7	Z7	X8	Y8	Z8	X9	Y9	Z9	

6563	65.620	-174.18703	148.92372	-279.59232	204.02139	49.16756	-317.23969	-81.80489	-17.61753	354.52994	288.33752	95.64774	291.24158	54.53946	1161.80420	-629.68542	-93.43334	616.36017	-404.64410	65.37897	617.62231	-429.09521	52.29507	527.61340	525.24231	204.65268	523.14349	501.44485	
6564	65.630	-177.53278	159.43401	-278.32330	203.43962	49.01250	-317.30423	-81.88049	-17.65652	354.53061	285.03445	106.68282	291.37186	53.72969	1161.29285	-630.14520	-94.74706	615.47253	-404.85706	63.78507	617.17230	-429.63013	51.07182	527.56561	525.05115	203.24626	523.00824	501.60196	
6565	65.640	-181.74686	168.78363	-276.97510	202.87990	48.86618	-317.38751	-82.03360	-17.55087	354.53317	281.91116	116.34256	291.69031	52.63359	1160.50159	-630.78302	-95.65790	615.13977	-404.65125	62.65377	616.53442	-429.61630	49.59652	528.57233	525.85254	201.86768	523.04041	501.44168	
6566	65.650	-186.40222	175.96429	-275.54395	204.16362	49.36312	-317.12320	-82.13647	-17.56061	354.57196	278.61496	123.49300	292.66193	51.68041	1159.69409	-631.34247	-96.89743	614.46515	-404.69940	61.36584	616.00452	-429.62082	48.18618	528.11548	526.13086	200.27861	523.18732	501.49094	
6567	65.660	-190.93301	179.90697	-273.20996	204.01306	49.35744	-317.11740	-82.20798	-17.69713	354.57324	274.83807	127.37351	293.55396	50.93993	1158.32239	-631.62054	-98.16451	614.22534	-404.72714	60.79361	615.28711	-429.19748	46.12735	528.90277	526.16998	198.93349	523.45184	501.66367	
6568	65.670	-195.40758	181.76740	-271.14877	203.91196	49.29987	-317.02493	-82.25900	-17.85439	354.61353	272.03259	128.66286	294.79666	49.81975	1157.32690	-632.32843	-99.43336	613.86060	-404.80927	59.48118	615.04138	-429.58688	44.44608	529.32629	525.96484	197.06873	523.81830	501.90063	
6569	65.680	-199.44139	180.07982	-268.62192	203.98398	49.32961	-316.94623	-82.27666	-17.89747	354.55453	267.94397	126.26691	296.31085	48.87526	1156.49414	-632.90472	-100.00825	613.72931	-404.82169	57.96180	614.40497	-429.20737	43.02968	529.90900	526.19800	194.85785	523.42419	501.42078	
6570	65.690	-203.61401	176.66391	-266.57959	203.77870	49.40697	-316.93912	-82.17578	-17.75709	354.53787	263.66779	121.69247	298.29068	48.84151	1155.89551	-633.13409	-100.94596	613.58386	-404.76721	57.98092	614.35413	-429.15573	40.98430	530.31641	526.31903	192.55649	523.77191	501.87613	
6571	65.700	-207.21629	171.80014	-265.03165	203.65199	49.44093	-316.81055	-82.22916	-17.71155	354.41943	259.27396	116.32781	300.35461	49.31961	1155.46875	-633.00299	-101.89257	613.71875	-404.87921	56.96930	614.31775	-429.09375	38.56020	530.23260	526.71582	196.29659	526.11530	504.83170	
6572	65.710	-210.18307	166.04059	-264.09543	203.54028	49.46487	-316.73813	-82.41422	-17.91534	354.38788	254.42593	110.28256	302.16193	50.26558	1155.31091	-632.47516	-103.19797	613.50128	-405.12753	55.47173	614.38623	-429.35672	36.50610	530.55688	526.26776	193.93005	526.24188	504.98346	
6573	65.720	-213.00777	159.30940	-263.38046	203.44812	49.41479	-316.60059	-82.53554	-18.23025	354.28976	249.14365	103.09842	303.64941	50.90641	1155.42627	-632.08075	-103.96169	613.48859	-405.21429	54.79297	614.20538	-429.19562	34.57137	530.93018	526.35388	189.90802	526.54150	506.55545	
6574	65.730	-216.21259	151.81438	-262.99475	203.33655	49.42237	-316.52176	-82.70715	-18.41057	354.19601	243.90416	95.62816	305.23288	51.30549	1155.49548	-631.84082	-104.93545	613.61188	-405.33707	53.91931	614.02057	-429.02719	31.60935	530.47571	526.86835	187.24280	526.40704	506.63498	
6575	65.740	-219.90637	143.40594	-262.98724	203.21336	49.43680	-316.45462	-82.92683	-18.60571	354.19540	238.45547	87.34033	306.61615	52.50203	1155.66748	-631.07098	-105.82016	613.83173	-405.80887	52.92156	614.13721	-429.09222	29.48511	530.45007	526.47650	184.75296	526.05725	506.93344	
6576	65.750	-223.66812	135.10513	-263.37064	203.16261	49.54572	-316.32620	-83.13290	-18.69317	354.14746	232.04796	77.91896	307.77771	53.53395	1155.52454	-630.61395	-106.60289	613.91730	-405.88980	51.88193	613.98486	-428.80750	26.79823	530.19067	526.49377	182.23351	525.08508	506.12842	
6577	65.760	-227.47350	126.11810	-264.13620	203.00488	49.65939	-316.22717	-83.35017	-18.76758	354.08612	225.64246	67.54897	308.82059	54.02000	1155.54468	-630.48334	-107.22173	614.02051	-406.13455	51.74094	614.04718	-428.82162	23.76428	529.83899	526.70020	176.02457	523.13623	504.29019	
6578	65.770	-230.54929	116.67760	-264.77148	202.75542	49.72559	-316.14087	-83.49867	-19.06611	354.08844	216.95940	56.34871	310.00769	54.78364	1155.52063	-630.07996	-108.12110	614.40845	-406.60809	50.66419	613.91742	-428.63141	20.70587	529.73816	526.62543	173.09154	522.50415	504.62915	
6579	65.780	-233.24438	107.55688	-265.60178	202.50775	49.75576	-316.10016	-83.92880	-19.49327	354.05365	211.61926	47.61715	310.27692	55.77177	1154.99097	-630.25476	-108.65205	614.45667	-407.12622	50.21486	614.09540	-429.07251	18.09912	529.38306	526.32892	173.54695	523.42773	506.64987	
6580	65.790	-235.14091	98.77048	-266.82135	202.43523	49.90167	-315.94220	-84.21681	-19.65225	353.97403	206.15582	38.31786	310.70770	57.21806	1154.98413	-629.86804	-109.13748	614.65887	-407.45947	49.56802	613.90143	-429.13220	14.55078	529.00836	526.22467	170.49797	522.77026	506.86948	
6581	65.800	-236.91389	90.32579	-268.10291	202.45769	50.03976	-315.78729	-84.42651	-19.72753	353.81921	201.30125	29.69133	310.57187	58.80656	1154.78015	-629.63556	-110.38957	615.18353	-408.17529	49.10473	613.85114	-429.12027	11.54720	528.16528	526.01849	163.75844	520.56958	504.96515	
6582	65.810	-239.55949	82.67625	-269.87604	202.52316	50.14865	-315.61896	-84.69293	-19.86275	353.56839	197.24474	21.57882	310.23813	60.74702	1155.02966	-629.44537	-110.96312	615.38049	-408.77527	48.06792	613.81085	-429.32349	8.52136	527.63922	524.84613	160.88799	519.42291	503.84985	
6583	65.820	-241.37233	75.53218	-271.57632	202.53432	50.27599	-315.49582	-84.95756	-19.97031	353.59244	193.16644	14.20547	309.57684	62.90514	1154.80859	-629.48651	-112.00624	615.94153	-409.67175	47.19310	613.75336	-429.77136	4.42298	527.85889	525.10132	157.42578	519.06592	505.01392	
6584	65.830	-243.18166	69.32793	-273.35828	202.51321	50.43603	-315.25861	-85.33166	-20.34489	353.61038	189.19830	7.52135	308.33066	65.63950	1154.67480	-629.14569	-112.35101	616.08221	-410.39075	46.16450	613.63702	-430.08420	1.25876	526.78644	524.38281	157.16696	519.60376	506.73788	
6585	65.840	-245.57541	63.84958	-275.80301	202.37155	50.54129	-315.09235	-85.61713	-20.68245	353.64297	185.73387	1.00738	306.95026	67.68095	1154.84595	-629.08099	-113.05724	616.50226	-411.53082	45.51340	613.77753	-430.70126	-2.38813	526.68060	523.37982	153.86810	518.75177	506.35864	
6586	65.850	-247.56950	59.01345	-278.33411	202.24730	50.64418	-314.83368	-85.98904	-20.92630	353.53070	182.31372	-5.84169	305.39627	69.93482	1155.33069	-628.89380	-113.72701	616.95135	-412.64093	45.60548	613.93835	-431.54922	-5.65733	526.27228	522.46918	146.91698	515.84399	503.25952	
6587	65.860	-249.60870	54.80153	-281.64053	202.00226	50.70410	-314.70682	-86.17437	-21.22061	353.29877	180.35909	-9.27835	302.75998	72.02365	1155.42322	-629.39178	-114.76321	617.60425	-413.80939	44.51529	614.17017	-432.50726	-9.81662	525.68103	521.73492	143.15321	515.52246	503.32932	
6588	65.870	-250.89383	53.40116	-284.01974	201.73645	50.68974	-314.56689	-86.42731	-21.35428	353.32285	181.20906	-9.62376	301.93225	73.29366	1155.73901	-629.64551	-115.30415	617.93433	-415.33841	44.51619	614.23627	-433.14096	-13.92590	525.73431	520.67188	142.30603	516.97351	504.64703	
6589	65.880	-251.22800	51.28122	-282.81357	201.33182	50.73513	-314.46048	-86.80412	-21.12287	353.04086	181.46446	-9.50364	303.12085	75.53693	1155.90125	-630.39203	-115.34629	618.37103	-416.87305	43.90451	614.51215	-434.51355	-18.38941	527.41107	519.66888	139.45886	518.37531	505.14838	
6590	65.890	-251.61227	51.65062	-283.89941	200.92526	50.68037	-313.89316	-87.08173	-20.83010	352.84534	181.35013	-7.78232	303.28073	77.07654	1156.05347	-632.19775	-115.55427	619.41699	-418.26123	44.02972	614.88800	-434.96942	-21.87102	528.30762	518.55627	134.66814	519.24597	504.40155	
